<?xml version="1.0" standalone="no"?>
<!DOCTYPE svg PUBLIC "-//W3C//DTD SVG 20010904//EN"
 "http://www.w3.org/TR/2001/REC-SVG-20010904/DTD/svg10.dtd">
<svg version="1.0" xmlns="http://www.w3.org/2000/svg"
 width="222.000000pt" height="227.000000pt" viewBox="0 0 222.000000 227.000000"
 preserveAspectRatio="xMidYMid meet">
<metadata>
Created by potrace 1.16, written by Peter Selinger 2001-2019
</metadata>
<g transform="translate(0.000000,227.000000) scale(0.100000,-0.100000)"
fill="#000000" stroke="none">
<path d="M424 2244 c-7 -28 11 -349 26 -469 12 -93 12 -145 0 -145 -5 0 -41
20 -79 44 -72 46 -165 96 -178 96 -4 0 27 -19 69 -43 42 -23 97 -56 122 -74
39 -28 44 -35 42 -65 -3 -33 -2 -34 35 -34 21 0 35 4 33 8 -3 5 -10 6 -15 3
-5 -3 -6 1 -3 10 6 14 8 14 25 -1 10 -9 23 -13 28 -9 6 3 11 -1 11 -10 0 -9 7
-23 15 -31 13 -14 15 -14 15 0 0 8 -4 18 -10 21 -5 3 -8 16 -6 28 2 12 -3 29
-11 38 -12 14 -8 20 34 48 26 17 44 31 39 31 -19 0 -76 -24 -76 -33 0 -4 -10
-6 -22 -3 -13 3 -17 3 -11 0 17 -8 -12 -38 -30 -31 -9 4 -9 6 1 6 6 1 12 6 12
12 0 5 -5 7 -10 4 -6 -3 -10 -2 -10 3 0 4 15 16 33 25 17 10 23 15 12 12 -41
-10 -42 -8 -60 185 -5 44 -3 60 3 51 8 -11 10 -8 9 12 -1 14 -6 23 -11 20 -4
-3 -5 10 -2 28 5 27 4 30 -4 14 -7 -14 -9 13 -9 95 1 63 1 117 0 120 -2 3 -4
13 -6 23 -8 40 13 23 237 -186 121 -114 136 -131 123 -144 -22 -22 -18 -29 5
-8 11 10 21 15 21 12 1 -4 2 -11 3 -17 0 -5 6 -10 11 -11 17 -1 55 -41 48 -52
-3 -6 -1 -7 5 -3 7 4 12 2 12 -3 0 -6 5 -11 11 -11 5 0 7 5 4 10 -7 12 35 30
50 22 16 -10 39 -11 45 -3 3 5 16 4 30 -1 24 -10 24 -11 5 -18 -16 -7 -17 -9
-3 -9 9 -1 20 4 23 9 3 6 13 10 21 10 8 0 13 -4 10 -9 -3 -4 6 -6 21 -3 18 3
24 1 19 -7 -4 -7 0 -10 11 -9 46 4 74 -4 93 -24 12 -13 27 -24 33 -24 7 -1 18
-2 25 -3 17 -1 15 -21 -2 -21 -8 0 -16 -6 -19 -14 -4 -10 0 -12 14 -9 13 4 25
-2 35 -16 20 -27 31 -27 36 3 4 19 1 23 -11 18 -14 -5 -14 -3 -3 11 13 15 47
13 37 -3 -7 -12 48 -9 65 3 12 9 13 9 3 -3 -7 -8 -13 -23 -13 -33 0 -14 3 -17
13 -9 7 6 83 11 187 11 96 1 225 4 286 7 134 8 223 -1 231 -23 8 -19 -52 -77
-69 -67 -6 4 -8 3 -5 -3 7 -11 -41 -49 -55 -45 -12 3 -10 -16 2 -23 6 -4 36
17 68 46 31 29 69 61 85 72 15 12 27 26 27 33 0 19 -156 26 -442 18 -147 -4
-268 -5 -268 -2 0 3 14 23 31 44 l31 39 -34 3 c-18 2 -59 -1 -91 -6 -31 -5
-57 -7 -57 -6 0 2 23 43 50 91 58 102 61 116 23 107 -53 -11 -189 -56 -267
-87 -85 -34 -77 -35 -113 20 -12 17 -14 16 -36 -10 l-23 -27 -54 51 -55 51
-10 -55 -10 -56 -76 72 c-162 155 -315 294 -346 316 l-32 22 -7 -27z"/>
<path d="M1437 1508 c-6 -46 -39 -86 -77 -93 -13 -2 -27 -10 -31 -16 -4 -7
-18 -10 -33 -7 -14 3 -23 2 -21 -3 6 -9 -77 -76 -85 -69 -3 3 -6 -8 -8 -25 -2
-16 -11 -36 -20 -43 -15 -11 -15 -14 -2 -22 8 -5 21 -10 28 -11 22 -3 27 -4
40 -13 7 -4 19 -4 25 1 7 4 4 0 -7 -10 -12 -11 -22 -14 -24 -8 -2 6 -14 -2
-28 -17 -20 -23 -25 -25 -35 -12 -9 13 -10 12 -5 -3 4 -13 0 -20 -14 -24 -11
-3 -20 -8 -20 -12 0 -4 -9 -7 -20 -8 -11 -1 -18 2 -15 7 3 5 -5 14 -17 20 -20
9 -21 9 -7 -2 14 -11 14 -15 3 -26 -7 -7 -10 -20 -7 -29 5 -12 3 -14 -7 -8 -8
5 -11 4 -6 -3 7 -11 -11 -24 -56 -41 -21 -8 -24 -6 -24 14 0 15 5 21 14 18 11
-5 11 -7 0 -14 -10 -7 -10 -9 2 -9 8 1 24 7 35 16 19 14 19 15 -5 12 -21 -3
-26 2 -28 25 -2 15 1 27 7 27 6 0 11 7 11 15 0 8 8 15 18 15 25 0 63 71 50 94
-11 20 -18 20 -68 -1 -37 -16 -40 -21 -40 -55 0 -21 -4 -38 -10 -38 -5 0 -10
-18 -10 -40 0 -33 -3 -40 -20 -40 -18 0 -20 7 -20 59 0 38 5 61 13 65 10 5 10
7 0 12 -18 8 -16 24 1 24 29 0 26 20 -6 40 -29 17 -34 18 -49 4 -18 -16 -65
-16 -86 -1 -21 15 -15 -7 7 -26 24 -20 26 -44 5 -44 -12 0 -12 3 -2 16 8 10 9
13 0 8 -15 -9 -21 1 -38 60 -19 67 -69 200 -78 210 -5 4 -4 -5 2 -19 11 -29 0
-45 -21 -32 -7 5 -8 3 -3 -5 4 -8 -1 -21 -14 -32 -12 -11 -21 -24 -21 -30 0
-6 -8 -6 -21 1 -11 7 -23 9 -26 7 -2 -3 5 -8 16 -12 20 -6 30 -25 13 -25 -4 0
-9 -10 -9 -22 -1 -13 -6 -24 -12 -26 -11 -4 -5 -75 7 -100 5 -9 7 -23 5 -29
-3 -7 2 -13 11 -13 9 0 16 -5 16 -10 0 -6 10 -15 23 -21 23 -10 31 -48 14 -66
-5 -4 -8 -1 -7 7 5 34 -1 50 -17 49 -11 0 -13 -3 -5 -6 22 -9 12 -25 -13 -21
-14 3 -28 1 -31 -4 -3 -5 -13 -1 -21 9 -14 17 -14 17 -9 0 3 -11 2 -16 -4 -12
-16 10 -12 27 11 52 20 20 20 23 5 29 -9 3 -16 15 -16 25 0 10 -5 19 -11 19
-5 0 -7 5 -4 10 3 6 2 10 -4 10 -5 0 -13 -4 -16 -10 -3 -5 -2 -10 4 -10 6 0
13 -11 17 -25 3 -14 11 -25 17 -25 5 0 2 -9 -8 -20 -18 -20 -18 -20 -37 11
-11 17 -17 34 -14 36 3 3 -2 12 -11 21 -11 12 -14 28 -10 61 4 28 3 38 -2 26
l-8 -20 -5 20 c-3 11 -4 0 -3 -25 1 -27 -5 -59 -16 -80 -19 -37 -22 -32 -20
35 0 17 -2 25 -5 18 -11 -24 -34 -1 -34 33 0 24 4 34 16 34 12 0 10 7 -10 31
-14 17 -26 35 -26 39 0 11 -80 8 -98 -3 -9 -6 -9 -14 -1 -30 10 -21 9 -21 -5
-3 -12 15 -13 23 -4 33 6 7 8 16 4 20 -3 3 -6 1 -6 -6 0 -8 -7 -11 -15 -7 -19
7 -19 10 9 -46 l23 -46 -25 -84 c-22 -73 -26 -102 -26 -238 -1 -152 -2 -156
-30 -204 -23 -37 -30 -64 -34 -120 -8 -124 1 -142 135 -267 8 -8 24 -30 37
-49 15 -24 29 -34 43 -33 11 1 29 -7 38 -17 24 -26 32 -25 39 6 6 22 11 25 31
20 23 -6 25 -4 25 28 0 19 4 37 8 40 5 3 27 -7 48 -23 21 -16 64 -41 94 -57
30 -15 72 -47 93 -71 43 -48 81 -77 114 -87 20 -6 26 -1 47 47 18 42 30 56 51
61 39 10 68 -20 115 -120 41 -86 64 -110 116 -120 36 -7 130 29 119 46 -3 5 0
7 8 4 22 -8 114 102 138 166 24 64 29 176 11 231 -12 34 -11 39 23 90 20 30
56 95 80 146 l44 91 83 27 c46 15 137 52 203 82 66 30 127 52 135 50 8 -3 23
-8 32 -12 14 -5 17 0 20 32 3 38 11 45 83 76 11 5 -23 36 -39 37 -6 0 -1 -6
10 -14 21 -16 19 -20 -15 -31 -19 -6 -23 -4 -18 7 3 10 -1 14 -16 13 -11 -1
-23 -8 -25 -15 -3 -9 1 -11 11 -7 9 3 19 1 23 -5 5 -7 3 -8 -5 -4 -8 5 -14 0
-18 -13 -4 -16 -11 -19 -29 -15 -20 5 -23 3 -18 -10 4 -10 13 -14 24 -11 11 3
17 0 17 -10 0 -10 -6 -14 -14 -10 -8 3 -26 5 -39 5 -14 0 -22 4 -19 10 3 6 1
10 -5 10 -6 0 -8 5 -5 11 5 6 12 4 21 -8 13 -16 14 -16 8 10 -6 26 -5 27 20
17 31 -12 36 4 6 22 -21 14 -27 43 -10 51 6 3 5 4 -2 3 -7 -1 -14 -15 -16 -30
-3 -24 -7 -27 -25 -21 -12 4 -30 7 -39 8 -10 1 -18 9 -18 19 0 11 -7 18 -20
18 -11 0 -20 6 -20 13 0 6 -7 24 -14 40 -14 26 -14 27 12 27 49 0 195 -21 211
-30 13 -7 9 -10 -16 -16 -27 -5 -30 -8 -18 -20 7 -8 22 -14 32 -13 11 0 13 3
5 6 -10 4 -10 9 3 23 16 17 15 19 -2 28 -27 14 -73 21 -247 37 -86 8 -161 17
-166 20 -27 17 1 45 252 253 100 83 102 86 84 101 -10 9 -17 7 -27 -6 -9 -11
-10 -14 -1 -9 7 4 12 2 12 -5 0 -7 -8 -9 -21 -6 -15 4 -18 2 -10 -7 8 -10 6
-18 -9 -31 -11 -10 -20 -13 -20 -7 0 7 -5 12 -11 12 -6 0 -9 -6 -6 -14 3 -8
-1 -20 -9 -26 -10 -9 -14 -9 -14 -1 0 6 5 11 11 11 5 0 7 5 4 10 -3 6 -11 10
-16 10 -6 0 -8 -4 -4 -9 3 -6 -3 -15 -14 -20 -13 -7 -21 -8 -24 -1 -3 6 -4 5
-3 -2 2 -7 10 -12 20 -10 9 2 16 -1 16 -6 0 -15 -26 -22 -39 -11 -6 5 -9 6 -6
3 3 -4 0 -13 -6 -21 -6 -7 -8 -13 -5 -13 4 0 -6 -11 -21 -24 -22 -19 -31 -22
-42 -13 -12 10 -14 9 -8 -5 6 -18 -15 -43 -27 -30 -4 4 -6 0 -4 -8 2 -8 -3
-14 -10 -12 -8 1 -11 -2 -8 -6 3 -5 -3 -17 -13 -26 -18 -17 -20 -17 -30 3 -6
11 -11 27 -11 35 0 9 -3 15 -7 15 -26 -4 -33 4 -33 41 0 22 -4 40 -10 40 -5 0
-10 7 -10 15 0 8 -5 15 -10 15 -6 0 -13 -7 -16 -15 -4 -10 -20 -15 -48 -15
-38 0 -43 3 -55 33 -8 17 -13 53 -11 80 2 58 -15 63 -23 5z m-723 -171 c16
-51 22 -91 19 -113 -4 -22 -2 -34 6 -34 6 0 11 8 12 18 0 9 10 -7 21 -36 25
-64 18 -77 -41 -67 -47 8 -95 38 -125 78 -26 35 -26 108 -1 158 22 44 67 91
76 82 4 -5 19 -43 33 -86z m896 -27 c4 -3 11 -24 15 -47 l7 -43 -31 6 c-31 6
-31 6 -31 -35 0 -29 4 -41 14 -41 9 0 16 -13 19 -32 4 -31 4 -31 5 6 2 37 3
38 20 23 10 -10 22 -14 27 -10 4 5 5 -10 1 -32 -10 -58 -14 -92 -9 -77 3 6 8
12 13 12 5 0 11 17 13 38 2 20 3 13 2 -16 -2 -66 -21 -83 -47 -44 l-18 27 -1
-30 c-1 -24 -3 -25 -6 -7 -4 18 -11 22 -44 22 -36 0 -39 2 -39 28 0 19 -10 35
-36 56 -24 19 -32 31 -24 36 8 5 7 17 -6 43 -10 21 -22 37 -26 37 -5 0 -4 -9
2 -19 13 -26 13 -44 -2 -35 -8 5 -9 0 -4 -17 15 -48 15 -71 1 -65 -8 3 -15 0
-17 -6 -2 -6 -14 -13 -27 -15 -13 -2 -20 1 -16 7 3 5 12 10 19 10 8 0 16 9 19
20 3 11 1 20 -3 20 -5 0 -2 12 6 28 18 35 18 61 -1 68 -17 7 -21 34 -5 34 5 0
9 -3 8 -7 -2 -5 0 -9 5 -10 16 -6 24 -2 24 12 0 8 -4 12 -9 9 -13 -8 -10 10 5
25 10 11 7 12 -13 6 -14 -4 -32 -14 -41 -21 -8 -8 -22 -14 -29 -14 -7 0 -22
-8 -32 -17 -17 -15 -21 -15 -30 -3 -8 12 -9 11 -4 -4 4 -13 2 -17 -8 -13 -7 3
-18 1 -24 -5 -6 -6 -16 -7 -24 -2 -13 9 -18 10 -39 13 -8 1 -8 5 1 16 7 8 10
26 8 39 -5 22 -3 23 29 14 25 -7 39 -6 51 4 11 9 14 10 8 1 -4 -8 -2 -13 6
-13 11 0 11 -2 0 -9 -10 -6 -10 -10 2 -20 8 -7 20 -10 27 -6 8 6 8 9 -1 15 -8
5 -2 10 17 15 26 7 26 8 8 15 -19 8 -19 9 3 9 12 1 22 -3 22 -9 0 -5 5 -10 11
-10 5 0 8 3 5 8 -2 4 28 9 67 10 63 3 75 7 106 35 l36 31 3 -29 c2 -17 7 -32
12 -35z m-1295 19 c-1 -12 -9 -27 -18 -34 -22 -16 -22 -27 1 -23 11 2 18 -4
20 -19 2 -16 -2 -23 -13 -23 -23 0 -30 -28 -11 -49 10 -11 20 -30 24 -45 4
-14 11 -25 16 -25 14 1 26 -24 21 -42 -3 -8 -1 -37 4 -64 10 -56 6 -72 -15
-54 -16 13 -17 1 -5 -72 5 -33 4 -52 -6 -65 -12 -16 -13 -16 -13 -1 0 9 -4 17
-10 17 -5 0 -10 -4 -10 -10 0 -19 -28 -10 -44 15 -9 14 -21 23 -26 20 -22 -14
-13 281 11 340 7 17 11 34 11 38 -4 14 28 66 45 76 12 7 14 10 4 11 -11 0 -11
3 -1 15 16 19 17 19 15 -6z m1065 -117 c0 -56 -27 -136 -56 -172 -52 -62 -146
-77 -224 -37 -24 12 -46 27 -47 33 -2 7 16 26 42 43 42 28 45 29 45 10 0 -11
5 -17 10 -14 6 3 10 15 10 25 0 10 11 27 25 38 13 11 22 22 19 25 -3 3 0 8 7
13 8 4 10 3 5 -4 -13 -21 8 -12 79 33 39 25 73 45 78 45 4 0 7 -17 7 -38z
m-900 -60 c0 -14 71 -93 79 -88 13 8 10 -38 -5 -92 -9 -30 -14 -56 -11 -58 2
-3 12 22 21 55 l17 60 72 -46 c40 -26 74 -50 75 -55 2 -4 8 -6 12 -3 5 3 42
-6 82 -19 40 -13 92 -29 116 -36 49 -13 49 -13 25 -122 l-16 -78 -33 0 c-46 0
-192 48 -214 70 -10 10 -21 16 -24 13 -9 -10 -126 91 -132 114 -3 12 -11 21
-17 20 -7 -1 -23 21 -37 48 -19 38 -25 70 -28 138 -3 59 0 87 7 87 6 0 11 -4
11 -8z m906 -101 c-4 -6 -13 -8 -21 -4 -8 3 -15 1 -15 -5 0 -6 -3 -18 -7 -28
-4 -10 -2 -15 4 -11 5 3 10 0 10 -8 0 -8 -5 -15 -11 -16 -6 0 0 -5 14 -10 22
-9 29 -6 53 21 15 16 27 26 27 21 0 -6 -4 -12 -10 -16 -5 -3 -7 -12 -4 -19 3
-8 1 -17 -5 -21 -7 -4 -8 1 -4 12 4 13 -2 10 -24 -9 -16 -16 -34 -28 -40 -28
-6 0 -16 -7 -23 -16 -8 -8 -21 -19 -31 -25 -15 -8 -17 -6 -12 7 4 12 3 15 -6
10 -6 -4 -11 -4 -10 1 4 22 -3 33 -18 33 -15 0 -15 -2 -4 -9 19 -12 -86 -8
-113 4 -14 6 -17 5 -12 -3 5 -8 1 -10 -10 -5 -16 6 -16 7 0 18 22 16 20 20 -9
21 -15 1 -25 -3 -25 -12 0 -20 -13 -17 -28 6 -9 15 -23 20 -55 20 -27 0 -37 3
-29 9 8 4 13 12 12 17 -1 5 3 10 9 12 6 2 8 -3 5 -12 -4 -12 0 -16 16 -16 11
0 18 5 15 10 -3 6 -1 10 5 10 6 0 8 5 4 12 -4 6 8 0 27 -14 19 -14 47 -28 62
-32 19 -4 27 -12 24 -21 -6 -15 14 -26 46 -24 20 1 20 2 -3 9 -19 6 -13 8 30
9 39 1 51 4 40 11 -13 8 -12 10 3 10 9 0 17 -5 17 -10 0 -6 8 -5 19 2 23 14
18 30 -7 21 -15 -6 -15 -5 -3 10 7 9 19 17 27 17 7 0 16 9 19 21 4 11 16 24
28 28 25 10 32 7 23 -8z m-91 -231 c-49 -67 -114 -118 -126 -99 -7 11 -9 11
-9 -3 0 -9 -5 -20 -11 -23 -18 -12 -122 -34 -156 -35 -39 0 -40 3 -15 115 l18
79 95 -3 c51 -1 97 -7 100 -13 4 -5 9 -3 12 6 4 9 17 16 29 17 13 0 39 6 58
12 19 7 37 9 38 5 2 -5 -13 -30 -33 -58z m148 -559 c-4 -3 -8 -12 -9 -18 -2
-30 -5 -34 -16 -27 -8 5 -9 2 -5 -10 5 -14 3 -17 -8 -12 -8 3 -15 1 -15 -5 0
-6 -4 -7 -10 -4 -6 3 -7 -1 -4 -10 5 -13 9 -13 22 -3 9 7 6 -2 -7 -20 -12 -17
-26 -32 -31 -32 -5 0 -10 -8 -12 -18 -2 -10 -6 -13 -10 -6 -4 6 1 20 11 31 11
12 16 25 11 33 -4 7 -6 22 -3 34 3 20 3 20 -6 -1 -6 -13 -15 -23 -21 -23 -6 0
-9 4 -5 9 3 5 1 12 -5 16 -5 3 -10 1 -10 -4 0 -6 -5 -11 -12 -11 -6 0 -8 3 -5
6 3 4 2 15 -4 26 -10 19 -11 18 -44 -6 l-33 -25 -15 22 -15 22 -26 -24 c-14
-14 -26 -30 -26 -38 0 -7 -9 -18 -20 -25 -11 -7 -20 -16 -20 -21 0 -4 4 -6 8
-3 4 2 8 -4 9 -14 1 -11 -2 -22 -8 -25 -5 -4 -6 2 -2 11 4 10 2 15 -4 11 -19
-12 -10 28 14 57 16 19 22 35 18 50 -5 16 -4 18 4 6 17 -25 21 -6 6 25 -15 29
-14 29 2 10 10 -11 27 -19 37 -17 10 2 23 -3 28 -12 10 -18 41 -10 34 10 -3 7
4 16 16 20 17 5 18 8 7 16 -11 8 -10 9 4 4 11 -3 20 0 23 9 9 21 30 19 47 -6
11 -15 16 -17 20 -7 3 7 8 -2 12 -20 8 -33 25 -39 33 -11 3 11 2 11 -7 -1 -13
-19 -14 -1 -1 20 5 8 17 15 27 15 11 0 20 9 22 25 l5 25 4 -24 c2 -13 0 -26
-5 -30z"/>
</g>
</svg>
